<?xml version="1.0" standalone="no"?><!DOCTYPE svg PUBLIC "-//W3C//DTD SVG 1.1//EN" "http://www.w3.org/Graphics/SVG/1.1/DTD/svg11.dtd"><svg t="1621067617587" class="icon" viewBox="0 0 1024 1024" version="1.1" xmlns="http://www.w3.org/2000/svg" p-id="16576" xmlns:xlink="http://www.w3.org/1999/xlink" width="48" height="48"><defs><style type="text/css"></style></defs><path d="M640 160 640 0 320 0l0 160c-150.336 62.72-256 211.008-256 384 0 147.2 76.672 276.224 192 350.144 20.288 12.992 41.536 24.448 64 33.856C369.28 948.544 423.296 960 480 960s110.72-11.456 160-32c22.464-9.344 43.712-20.864 64-33.856 115.328-73.92 192-203.008 192-350.144C896 370.944 790.336 222.72 640 160zM384 64l192 0 0 64L480 128 384 128 384 64zM480 192c136.448 0 254.72 78.208 313.152 192L166.848 384C225.28 270.208 343.552 192 480 192zM640 857.152C591.936 881.792 537.664 896 480 896S368.064 881.792 320 857.152L320 614.656C320 593.728 337.728 576 358.656 576l242.688 0C622.272 576 640 593.728 640 614.656L640 857.152zM704 815.296 704 614.656C704 558.208 657.792 512 601.344 512L358.656 512C302.208 512 256 558.208 256 614.656l0 200.64C177.856 750.72 128 653.056 128 544 128 510.656 132.928 478.592 141.632 448l676.736 0C827.072 478.592 832 510.656 832 544 832 653.056 782.144 750.72 704 815.296zM480 640C427.008 640 384 683.008 384 736S427.008 832 480 832 576 788.992 576 736 532.992 640 480 640zM480 768C462.336 768 448 753.664 448 736S462.336 704 480 704 512 718.336 512 736 497.664 768 480 768z" p-id="16577"></path></svg>